# xmcd
#
# Track frame offsets: 
#        150
#        18129
#        29382
#        48421
#        70848
#        84515
#        100084
#        116963
#        135073
#        149179
#        165953
#        176770
#        189478
#        205798
#        243535
#        273775
#        292597
#        309072
#        319608
#
# Disc length: 4464 seconds
#
# Revision: 0
# Processed by: cddbd v1.5.1PL0 Copyright (c) Steve Scherf et al.
# Submitted via: ExactAudioCopy v0.95a5
#
DISCID=f8116e13
DTITLE=Slipknot - hit collection vol2
DYEAR=1900
DGENRE=Funk
TTITLE0=Metabolic
TTITLE1=Wait and bleed
TTITLE2=Switch
TTITLE3=Protnetics
TTITLE4=My plague
TTITLE5=Dilute
TTITLE6=Despite
TTITLE7=Left behind
TTITLE8=Liberate
TTITLE9=My plague (or.ver.)
TTITLE10=Only one
TTITLE11=No life
TTITLE12=People=shit
TTITLE13=Scissors
TTITLE14=Skin ticket
TTITLE15=The heretic anthem
TTITLE16=The shape
TTITLE17=Digipac-interloper
TTITLE18=(SIC)
EXTD=
EXTT0=
EXTT1=
EXTT2=
EXTT3=
EXTT4=
EXTT5=
EXTT6=
EXTT7=
EXTT8=
EXTT9=
EXTT10=
EXTT11=
EXTT12=
EXTT13=
EXTT14=
EXTT15=
EXTT16=
EXTT17=
EXTT18=
PLAYORDER=
